<svg enable-background="new 0 0 1024 1024" viewBox="0 0 1024 1024" xmlns="http://www.w3.org/2000/svg"><circle cx="512" cy="512" fill="#a6ce39" r="512"/><g fill="#fff"><path d="m373.7 709.3h-50.4v-350.8h50.4v158.5z"/><path d="m447.7 358.5h136.2c129.7 0 186.7 92.7 186.7 175.5 0 90.1-70.4 175.5-186 175.5h-136.9zm50.4 305.6h80.2c114.3 0 140.5-86.8 140.5-130 0-70.4-44.9-130-143.1-130h-77.6z"/><path d="m381.6 285.5c0 18-14.7 33.1-33.1 33.1-18.3 0-33.1-15.1-33.1-33.1 0-18.3 14.7-33.1 33.1-33.1 18.3 0 33.1 15.1 33.1 33.1z"/></g></svg>